# xmcd CD database file
#
# Track frame offsets:
#	183
#	12580
#	23148
#	35878
#	45145
#	59318
#	75660
#	87653
#	110923
#	120973
#	129563
#	141783
#	153728
#	163600
#	173355
#	186215
#
# Disc length: 2736 seconds
#
# Revision: 6
# Processed by: cddbd v1.5.2PL0 Copyright (c) Steve Scherf et al.
# Submitted via: CDex 1.77
#
DISCID=d10aae10
DTITLE=Various Artist - Nashville Gold - Super Country Hits Vol1
DYEAR=1989
DGENRE=Country
TTITLE0=Bobby Bare - 500 Miles Away From Home
TTITLE1=Jim Reeves - He'll Have To Go
TTITLE2=Charley Pride - Rhinestone Cowboy
TTITLE3=Chet Atkins - Yakety Axe
TTITLE4=Willie Nelson - My Own Peculiar Way
TTITLE5=Alabama - Feels So Right
TTITLE6=Dolly Parton - Jolene
TTITLE7=Waylon Jennings - MacArthur Park
TTITLE8=George Hamilton IV - Abilene
TTITLE9=Skeeter Davis and Bobby Bare - A Dear John Letter
TTITLE10=Dave and Sugar - The Door Is Always Open
TTITLE11=Skeeter Davis - The End Of The World
TTITLE12=Don Gibson - I'm Movin' On
TTITLE13=Hank Locklin - Geisha Girl
TTITLE14=Jim Reeves - Four Walls
TTITLE15=Ronnie Milsap - Lost In The Fifties Tonight
EXTD=YEAR: 1989
EXTT0=
EXTT1=
EXTT2=
EXTT3=
EXTT4=
EXTT5=
EXTT6=
EXTT7=
EXTT8=
EXTT9=
EXTT10=
EXTT11=
EXTT12=
EXTT13=
EXTT14=
EXTT15=
PLAYORDER=
